<svg xmlns="http://www.w3.org/2000/svg" version="1.1" xmlns:xlink="http://www.w3.org/1999/xlink" xmlns:svgjs="http://svgjs.com/svgjs" width="1440" height="600" preserveAspectRatio="none" viewBox="0 0 1440 600"><g mask="url(&quot;#SvgjsMask1298&quot;)" fill="none"><rect width="1440" height="600" x="0" y="0" fill="rgba(0, 109, 119, 1)"></rect><path d="M278.03 22.3 a105.52 105.52 0 1 0 211.04 0 a105.52 105.52 0 1 0 -211.04 0z" fill="rgba(131, 197, 190, 0.4)" class="triangle-float2"></path><path d="M1063.54 347.41 a129.42 129.42 0 1 0 258.84 0 a129.42 129.42 0 1 0 -258.84 0z" fill="rgba(131, 197, 190, 0.4)" class="triangle-float1"></path><path d="M795.65 131.46 a177.24 177.24 0 1 0 354.48 0 a177.24 177.24 0 1 0 -354.48 0z" fill="rgba(131, 197, 190, 0.4)" class="triangle-float1"></path><path d="M516.9 455.86 a115.76 115.76 0 1 0 231.52 0 a115.76 115.76 0 1 0 -231.52 0z" fill="rgba(131, 197, 190, 0.4)" class="triangle-float1"></path><path d="M78.58 6.49 a119.69 119.69 0 1 0 239.38 0 a119.69 119.69 0 1 0 -239.38 0z" fill="rgba(131, 197, 190, 0.4)" class="triangle-float1"></path><path d="M14.49 370.31 a118.03 118.03 0 1 0 236.06 0 a118.03 118.03 0 1 0 -236.06 0z" fill="rgba(131, 197, 190, 0.4)" class="triangle-float1"></path><path d="M298.76 537.98 a111.39 111.39 0 1 0 222.78 0 a111.39 111.39 0 1 0 -222.78 0z" fill="rgba(131, 197, 190, 0.4)" class="triangle-float1"></path><path d="M1097.76 493.62 a162.77 162.77 0 1 0 325.54 0 a162.77 162.77 0 1 0 -325.54 0z" fill="rgba(131, 197, 190, 0.4)" class="triangle-float1"></path><path d="M849.42 302.87 a104.24 104.24 0 1 0 208.48 0 a104.24 104.24 0 1 0 -208.48 0z" fill="rgba(131, 197, 190, 0.4)" class="triangle-float1"></path><path d="M1154.99 61.1 a178.97 178.97 0 1 0 357.94 0 a178.97 178.97 0 1 0 -357.94 0z" fill="rgba(131, 197, 190, 0.4)" class="triangle-float1"></path><path d="M324.61 150.59 a163.12 163.12 0 1 0 326.24 0 a163.12 163.12 0 1 0 -326.24 0z" fill="rgba(131, 197, 190, 0.4)" class="triangle-float1"></path></g><defs><mask id="SvgjsMask1298"><rect width="1440" height="600" fill="#ffffff"></rect></mask><style>
            @keyframes float1 {
                0%{transform: translate(0, 0)}
                50%{transform: translate(-10px, 0)}
                100%{transform: translate(0, 0)}
            }

            .triangle-float1 {
                animation: float1 5s infinite;
            }

            @keyframes float2 {
                0%{transform: translate(0, 0)}
                50%{transform: translate(-5px, -5px)}
                100%{transform: translate(0, 0)}
            }

            .triangle-float2 {
                animation: float2 4s infinite;
            }

            @keyframes float3 {
                0%{transform: translate(0, 0)}
                50%{transform: translate(0, -10px)}
                100%{transform: translate(0, 0)}
            }

            .triangle-float3 {
                animation: float3 6s infinite;
            }
        </style></defs></svg>