<svg xmlns="http://www.w3.org/2000/svg" version="1.1" xmlns:xlink="http://www.w3.org/1999/xlink" xmlns:svgjs="http://svgjs.com/svgjs" width="64" height="10" preserveAspectRatio="none" viewBox="0 0 64 10"><g mask="url(&quot;#SvgjsMask1139&quot;)" fill="none"><path d="M -0.4260349517773534,9 C 1.17,7.8 4.37,2.8 7.573965048222647,3 C 10.77,3.2 12.37,10 15.573965048222647,10 C 18.77,10 20.37,3.2 23.573965048222647,3 C 26.77,2.8 28.37,9 31.573965048222647,9 C 34.77,9 36.37,3.4 39.57396504822265,3 C 42.77,2.6 44.37,7 47.57396504822265,7 C 50.77,7 52.37,2.8 55.57396504822265,3 C 58.77,3.2 60.37,7.8 63.57396504822265,8 C 66.77,8.2 68.37,3.6 71.57396504822265,4 C 74.77,4.4 81.09,10.4 79.57396504822265,10 C 78.06,9.6 67.11,3.6 64,2" stroke="rgba(10, 147, 150, 0.75)" stroke-width="2"></path></g><defs><mask id="SvgjsMask1139"><rect width="64" height="10" fill="#ffffff"></rect></mask></defs></svg>