<?xml version="1.0" encoding="UTF-8" standalone="no"?>
<!DOCTYPE svg PUBLIC "-//W3C//DTD SVG 1.1//EN" "http://www.w3.org/Graphics/SVG/1.1/DTD/svg11.dtd">
<svg width="100%" height="100%" viewBox="0 0 2134 2134" version="1.1" xmlns="http://www.w3.org/2000/svg" xmlns:xlink="http://www.w3.org/1999/xlink" xml:space="preserve" xmlns:serif="http://www.serif.com/" style="fill-rule:evenodd;clip-rule:evenodd;stroke-linejoin:round;stroke-miterlimit:2;">
    <g transform="matrix(7.37537,0,0,7.37537,126.134,-521.8)">
        <path d="M23.21,331.085L0,70.749L255.047,70.749L231.812,331.045L127.367,360L23.21,331.085Z" style="fill:rgb(24,114,181);fill-rule:nonzero;"/>
        <path d="M127.524,337.868L211.92,314.47L231.776,92.035L127.524,92.035L127.524,337.868Z" style="fill:rgb(81,163,218);fill-rule:nonzero;"/>
        <path d="M44.648,152.125L41.523,122L213.524,122L211.524,156.875L138.774,189L208.524,189L201.024,288L130.724,306.875L57.773,289.188L53.273,239L85.523,239L87.273,265.5L129.524,273.375L168.524,261.438L170.274,219L50.523,219L48.273,187.5L127.524,152.75L44.648,152.125Z" style="fill:rgb(235,235,236);fill-rule:nonzero;"/>
        <path d="M48.273,187.5L50.523,219L127.524,219L127.524,152.75L48.273,187.5Z" style="fill:rgb(206,206,207);fill-rule:nonzero;"/>
        <path d="M87.273,265.5L85.523,239L53.273,239L57.773,289.188L127.524,306.099L127.524,273.002L87.273,265.5Z" style="fill:rgb(206,206,207);fill-rule:nonzero;"/>
        <path d="M41.523,122L44.648,152.125L127.524,152.75L127.524,122L41.523,122Z" style="fill:rgb(206,206,207);fill-rule:nonzero;"/>
    </g>
</svg>
