<?xml version="1.0" encoding="UTF-8" standalone="no"?>
<!DOCTYPE svg PUBLIC "-//W3C//DTD SVG 1.1//EN" "http://www.w3.org/Graphics/SVG/1.1/DTD/svg11.dtd">
<svg width="100%" height="100%" viewBox="0 0 2134 2134" version="1.1" xmlns="http://www.w3.org/2000/svg" xmlns:xlink="http://www.w3.org/1999/xlink" xml:space="preserve" xmlns:serif="http://www.serif.com/" style="fill-rule:evenodd;clip-rule:evenodd;stroke-linejoin:round;stroke-miterlimit:2;">
    <g transform="matrix(7.36814,0,0,7.36814,127.056,-519.195)">
        <path d="M23.21,331.085L0,70.749L255.047,70.749L231.812,331.045L127.367,360L23.21,331.085Z" style="fill:rgb(228,78,38);fill-rule:nonzero;"/>
        <path d="M127.524,337.868L211.92,314.47L231.776,92.035L127.524,92.035L127.524,337.868Z" style="fill:rgb(241,102,41);fill-rule:nonzero;"/>
        <path d="M127.524,188.59L85.272,188.59L82.354,155.894L127.524,155.894L127.524,123.964L47.46,123.964L48.224,132.531L56.072,220.519L127.524,220.519L127.524,188.59Z" style="fill:rgb(235,235,236);fill-rule:nonzero;"/>
        <path d="M127.524,271.514L127.384,271.551L91.824,261.949L89.55,236.484L57.498,236.484L61.971,286.618L127.377,304.774L127.524,304.733L127.524,271.514Z" style="fill:rgb(235,235,236);fill-rule:nonzero;"/>
        <path d="M127.413,188.59L127.413,220.519L166.731,220.519L163.025,261.929L127.413,271.541L127.413,304.759L192.87,286.618L193.35,281.224L200.854,197.164L201.632,188.59L127.413,188.59Z" style="fill:white;fill-rule:nonzero;"/>
        <path d="M127.413,123.964L127.413,155.894L204.537,155.894L205.178,148.717L206.633,132.531L207.397,123.964L127.413,123.964Z" style="fill:white;fill-rule:nonzero;"/>
    </g>
</svg>
