<svg xmlns="http://www.w3.org/2000/svg" width="375" viewBox="0 0 375 375" height="375" version="1.0"><path fill="#8F857B" d="M 127.472656 362.234375 C 115.222656 362.234375 104.082031 354.929688 99.285156 343.640625 L 87.847656 316.925781 C 80.617188 302.539062 68.957031 291.765625 54.199219 285.863281 L 33.167969 277.449219 C 23.058594 273.464844 15.828125 264.316406 14.203125 253.617188 C 13.394531 248.230469 14.058594 242.695312 16.050781 237.601562 L 24.386719 216.941406 C 30.585938 201.445312 30.660156 184.402344 24.535156 168.90625 C 24.019531 167.652344 23.503906 166.394531 22.984375 165.214844 L 12.359375 140.347656 C 9.851562 134.445312 9.261719 127.953125 10.664062 121.679688 C 12.800781 112.011719 19.445312 104.042969 28.519531 100.132812 L 57.371094 87.808594 C 71.910156 80.875 83.34375 68.917969 89.617188 54.089844 L 98.324219 32.320312 C 103.046875 20.660156 114.191406 13.0625 126.808594 13.0625 C 130.71875 13.0625 134.554688 13.796875 138.246094 15.273438 L 162.300781 24.941406 C 168.941406 27.226562 175.878906 28.335938 182.886719 28.335938 C 191.667969 28.335938 200.300781 26.5625 208.566406 23.023438 L 231.738281 13.132812 C 235.574219 11.4375 239.632812 10.625 243.765625 10.625 C 256.015625 10.625 267.082031 17.929688 271.953125 29.222656 L 282.726562 54.308594 C 289.589844 68.992188 301.617188 80.429688 316.523438 86.703125 L 343.453125 97.550781 C 351.054688 100.574219 357.03125 106.40625 360.277344 113.929688 C 363.453125 121.457031 363.597656 129.796875 360.574219 137.398438 L 349.285156 165.65625 C 343.824219 180.933594 344.265625 197.609375 350.464844 212.589844 L 359.023438 232.585938 C 365.664062 248.15625 358.433594 266.160156 342.9375 272.800781 L 320.285156 282.46875 C 305.96875 289.550781 294.753906 301.726562 288.777344 316.632812 L 278.296875 342.753906 C 273.574219 354.488281 262.433594 362.011719 249.816406 362.011719 C 245.90625 362.011719 242.066406 361.273438 238.378906 359.800781 L 210.339844 348.582031 C 203.179688 346 195.726562 344.671875 188.128906 344.671875 C 179.492188 344.671875 171.007812 346.371094 162.890625 349.765625 L 139.425781 359.800781 C 135.664062 361.421875 131.605469 362.234375 127.472656 362.234375 Z M 126.808594 13.726562 C 114.484375 13.726562 103.5625 21.105469 98.914062 32.542969 L 90.207031 54.308594 C 83.863281 69.289062 72.277344 81.390625 57.519531 88.253906 L 28.667969 100.574219 C 19.8125 104.339844 13.246094 112.234375 11.179688 121.679688 C 9.777344 127.804688 10.367188 134.148438 12.875 139.980469 L 23.503906 164.847656 C 24.09375 166.027344 24.609375 167.355469 25.125 168.609375 C 31.25 184.253906 31.175781 201.519531 24.976562 217.164062 L 16.714844 237.824219 C 14.722656 242.769531 14.058594 248.230469 14.867188 253.46875 C 16.492188 263.945312 23.574219 272.875 33.390625 276.785156 L 54.421875 285.273438 C 69.324219 291.25 81.132812 302.09375 88.4375 316.632812 L 99.875 343.34375 C 104.597656 354.414062 115.445312 361.570312 127.472656 361.570312 C 131.53125 361.570312 135.515625 360.757812 139.277344 359.136719 L 162.742188 349.101562 C 170.933594 345.632812 179.492188 343.933594 188.199219 343.933594 C 195.875 343.933594 203.402344 345.261719 210.632812 347.84375 L 238.671875 359.136719 C 242.289062 360.539062 245.976562 361.273438 249.816406 361.273438 C 262.136719 361.273438 273.058594 353.894531 277.632812 342.457031 L 288.113281 316.335938 C 294.164062 301.285156 305.453125 289.035156 319.914062 281.878906 L 342.570312 272.210938 C 357.769531 265.71875 364.855469 248.007812 358.359375 232.808594 L 349.800781 212.808594 C 343.527344 197.683594 343.085938 180.859375 348.621094 165.363281 L 359.910156 137.101562 C 362.863281 129.648438 362.789062 121.53125 359.613281 114.152344 C 356.515625 106.773438 350.613281 101.09375 343.234375 98.140625 L 316.226562 87.292969 C 301.171875 80.949219 288.996094 69.289062 282.0625 54.53125 L 271.289062 29.441406 C 266.566406 18.375 255.71875 11.214844 243.691406 11.214844 C 239.632812 11.214844 235.648438 12.027344 231.882812 13.652344 L 208.714844 23.613281 C 200.375 27.15625 191.667969 28.925781 182.742188 28.925781 C 175.65625 28.925781 168.648438 27.746094 161.933594 25.457031 L 137.800781 15.789062 C 134.40625 14.460938 130.644531 13.726562 126.808594 13.726562 Z M 126.808594 13.726562"/><path fill="#8F857B" d="M 164.441406 370.277344 C 152.414062 372.710938 140.089844 367.769531 133.078125 357.660156 L 116.550781 333.75 C 106.589844 321.132812 93.011719 312.941406 77.367188 310.066406 L 55.085938 306.007812 C 44.457031 304.015625 35.53125 296.5625 31.839844 286.378906 C 29.921875 281.285156 29.480469 275.753906 30.4375 270.367188 L 34.421875 248.523438 C 37.449219 232.144531 34.054688 215.390625 25.050781 201.445312 C 24.3125 200.339844 23.503906 199.234375 22.765625 198.125 L 7.269531 175.839844 C 3.578125 170.527344 1.734375 164.328125 1.808594 157.835938 C 2.027344 147.949219 6.898438 138.796875 15.015625 133.191406 L 40.84375 115.332031 C 53.757812 105.742188 62.683594 91.722656 65.785156 75.929688 L 69.988281 52.832031 C 72.277344 40.4375 81.648438 30.84375 94.046875 28.261719 C 97.882812 27.523438 101.792969 27.449219 105.628906 28.113281 L 131.085938 32.761719 C 138.023438 33.648438 145.109375 33.351562 151.96875 31.949219 C 160.605469 30.179688 168.71875 26.710938 176.097656 21.621094 L 196.835938 7.304688 C 200.230469 4.945312 204.066406 3.320312 208.125 2.433594 C 220.152344 0 232.476562 4.945312 239.484375 15.054688 L 254.980469 37.484375 C 264.648438 50.472656 278.667969 59.402344 294.605469 62.5 L 323.164062 67.664062 C 331.207031 69.140625 338.214844 73.640625 342.863281 80.355469 C 347.511719 87.070312 349.285156 95.1875 347.808594 103.304688 L 342.347656 133.191406 C 340.058594 149.203125 343.75 165.511719 352.898438 178.941406 L 365.222656 196.796875 C 374.816406 210.671875 371.347656 229.78125 357.476562 239.449219 L 337.257812 253.46875 C 324.636719 263.355469 316.078125 277.449219 313.199219 293.242188 L 308.183594 320.910156 C 305.894531 333.308594 296.449219 342.976562 284.128906 345.484375 C 280.289062 346.296875 276.378906 346.296875 272.542969 345.632812 L 242.878906 340.246094 C 235.351562 339.136719 227.824219 339.359375 220.375 340.835938 C 211.886719 342.53125 203.917969 345.925781 196.6875 350.871094 L 175.65625 365.40625 C 172.261719 367.84375 168.5 369.464844 164.441406 370.277344 Z M 94.191406 28.925781 C 82.089844 31.433594 72.867188 40.804688 70.652344 52.980469 L 66.449219 76.078125 C 63.199219 92.015625 54.273438 106.183594 41.210938 115.925781 L 15.386719 133.78125 C 7.488281 139.242188 2.691406 148.242188 2.472656 157.910156 C 2.398438 164.257812 4.167969 170.308594 7.785156 175.546875 L 23.207031 197.757812 C 24.019531 198.863281 24.757812 199.96875 25.496094 201.078125 C 34.644531 215.171875 37.964844 232.070312 35.011719 248.671875 L 31.027344 270.511719 C 30.070312 275.828125 30.511719 281.214844 32.355469 286.230469 C 36.046875 296.191406 44.753906 303.570312 55.15625 305.417969 L 77.441406 309.472656 C 93.308594 312.351562 107.03125 320.617188 117.066406 333.457031 L 133.597656 357.363281 C 140.386719 367.253906 152.488281 372.121094 164.292969 369.6875 C 168.277344 368.875 171.96875 367.253906 175.363281 364.964844 L 196.390625 350.429688 C 203.695312 345.410156 211.738281 342.015625 220.300781 340.320312 C 227.753906 338.769531 235.425781 338.546875 243.027344 339.726562 L 272.691406 345.113281 C 276.453125 345.777344 280.289062 345.777344 284.054688 344.96875 C 296.15625 342.53125 305.378906 333.085938 307.59375 320.910156 L 312.609375 293.242188 C 315.488281 277.300781 324.121094 263.0625 336.960938 253.097656 L 357.179688 239.078125 C 370.757812 229.632812 374.152344 210.964844 364.78125 197.386719 L 352.382812 179.53125 C 343.160156 165.953125 339.394531 149.570312 341.683594 133.339844 L 347.144531 103.378906 C 348.546875 95.484375 346.847656 87.515625 342.347656 80.949219 C 337.773438 74.378906 330.910156 69.953125 323.089844 68.550781 L 294.457031 63.3125 C 278.445312 60.140625 264.203125 51.136719 254.464844 38.074219 L 238.96875 15.644531 C 232.105469 5.753906 220.078125 0.886719 208.273438 3.320312 C 204.289062 4.132812 200.597656 5.753906 197.203125 8.042969 L 176.46875 22.359375 C 169.015625 27.523438 160.824219 30.992188 152.117188 32.761719 C 145.179688 34.164062 138.097656 34.460938 131.015625 33.574219 L 105.484375 28.925781 C 101.71875 28.113281 97.882812 28.1875 94.191406 28.925781 Z M 94.191406 28.925781"/><path fill="#8F857B" d="M 6.75 231.773438 C 0.183594 221.371094 0.40625 208.160156 7.269531 197.976562 L 23.648438 173.996094 C 31.914062 160.125 34.71875 144.554688 31.765625 128.910156 L 27.558594 106.625 C 25.566406 96 29.40625 85.007812 37.597656 77.847656 C 41.65625 74.234375 46.671875 71.796875 52.058594 70.839844 L 73.902344 66.78125 C 90.28125 63.679688 104.746094 54.605469 114.558594 41.175781 C 115.371094 40.066406 116.109375 38.960938 116.847656 37.855469 L 132.121094 15.496094 C 135.738281 10.183594 140.902344 6.199219 146.953125 3.984375 C 156.175781 0.664062 166.582031 1.917969 174.699219 7.453125 L 200.597656 25.164062 C 214.175781 33.796875 230.484375 37.042969 246.347656 34.386719 L 269.371094 30.03125 C 281.765625 27.671875 294.164062 33.058594 300.953125 43.683594 C 303.019531 46.929688 304.492188 50.621094 305.230469 54.457031 L 309.953125 79.988281 C 311.652344 86.777344 314.382812 93.269531 318.144531 99.171875 C 322.867188 106.625 328.992188 112.972656 336.445312 117.988281 L 357.253906 132.230469 C 360.648438 134.59375 363.597656 137.542969 365.8125 141.085938 C 372.378906 151.492188 372.160156 164.699219 365.222656 174.882812 L 349.800781 197.460938 C 341.09375 211.113281 337.847656 227.421875 340.578125 243.359375 L 345.964844 271.914062 C 347.441406 279.957031 345.742188 288.074219 341.09375 294.863281 C 336.519531 301.652344 329.507812 306.152344 321.464844 307.703125 L 291.582031 313.3125 C 275.789062 316.925781 261.917969 326.226562 252.621094 339.507812 L 240.371094 357.4375 C 230.851562 371.382812 211.738281 375 197.792969 365.480469 L 177.5 351.609375 C 163.777344 343.34375 147.542969 340.390625 131.75 343.34375 L 104.15625 348.507812 C 91.757812 350.871094 79.359375 345.484375 72.644531 334.859375 C 70.507812 331.539062 69.105469 327.921875 68.367188 324.085938 L 62.832031 294.421875 C 61.136719 286.96875 58.257812 280.03125 54.199219 273.613281 C 49.550781 266.308594 43.5 260.035156 36.339844 255.089844 L 15.3125 240.703125 C 11.84375 238.195312 8.964844 235.242188 6.75 231.773438 Z M 300.363281 44.050781 C 293.71875 33.648438 281.617188 28.410156 269.515625 30.695312 L 246.421875 35.050781 C 230.410156 37.78125 213.953125 34.460938 200.230469 25.753906 L 174.328125 8.042969 C 166.359375 2.582031 156.25 1.253906 147.175781 4.574219 C 141.269531 6.714844 136.253906 10.625 132.636719 15.863281 L 117.363281 38.222656 C 116.699219 39.328125 115.886719 40.511719 115.074219 41.617188 C 105.1875 55.195312 90.578125 64.417969 74.046875 67.519531 L 52.207031 71.648438 C 46.894531 72.609375 42.023438 74.96875 38.039062 78.511719 C 30.070312 85.523438 26.304688 96.296875 28.296875 106.699219 L 32.503906 128.984375 C 35.53125 144.777344 32.652344 160.566406 24.3125 174.511719 L 7.859375 198.347656 C 1.070312 208.308594 0.847656 221.222656 7.269531 231.40625 C 9.480469 234.800781 12.285156 237.75 15.605469 240.039062 L 36.710938 254.425781 C 44.015625 259.445312 50.066406 265.71875 54.789062 273.171875 C 58.921875 279.589844 61.800781 286.671875 63.496094 294.199219 L 69.105469 323.863281 C 69.769531 327.699219 71.171875 331.242188 73.238281 334.414062 C 79.878906 344.820312 91.980469 350.058594 104.082031 347.84375 L 131.679688 342.679688 C 147.617188 339.726562 163.996094 342.679688 177.871094 351.019531 L 198.238281 364.964844 C 211.886719 374.261719 230.554688 370.71875 239.925781 357.144531 L 252.175781 339.210938 C 261.621094 325.78125 275.566406 316.335938 291.582031 312.722656 L 321.464844 307.113281 C 329.359375 305.636719 336.148438 301.210938 340.722656 294.570312 C 345.226562 287.929688 346.921875 279.957031 345.445312 272.136719 L 340.058594 243.582031 C 337.332031 227.421875 340.652344 210.964844 349.359375 197.167969 L 364.78125 174.660156 C 371.570312 164.699219 371.789062 151.785156 365.296875 141.601562 C 363.15625 138.207031 360.351562 135.257812 356.957031 132.96875 L 336.074219 118.582031 C 328.625 113.488281 322.425781 107.070312 317.628906 99.542969 C 313.792969 93.566406 311.0625 87.070312 309.289062 80.136719 L 304.492188 54.605469 C 303.828125 50.839844 302.425781 47.300781 300.363281 44.050781 Z M 300.363281 44.050781"/><g fill="#97A97C"><g><g><path d="M 182.328125 -87.765625 C 183.691406 -87.953125 184.738281 -87.675781 185.46875 -86.9375 C 186.207031 -86.207031 186.429688 -85.1875 186.140625 -83.875 C 185.546875 -81.601562 184.742188 -79.375 183.734375 -77.1875 C 180.148438 -68.894531 176.269531 -60.75 172.09375 -52.75 C 163.269531 -35.976562 154.03125 -19.410156 144.375 -3.046875 C 143.914062 -2.347656 143.472656 -1.613281 143.046875 -0.84375 C 142.890625 -0.550781 142.71875 -0.253906 142.53125 0.046875 C 142.1875 0.390625 141.925781 0.753906 141.75 1.140625 C 141.570312 1.523438 141.566406 1.894531 141.734375 2.25 C 142.023438 2.695312 142.390625 2.921875 142.828125 2.921875 C 143.273438 2.921875 143.738281 2.84375 144.21875 2.6875 C 144.613281 2.5 145.023438 2.40625 145.453125 2.40625 C 145.804688 2.351562 146.179688 2.328125 146.578125 2.328125 C 147.222656 2.222656 147.875 2.179688 148.53125 2.203125 C 149.1875 2.234375 149.804688 2.445312 150.390625 2.84375 C 150.628906 2.976562 150.820312 3.128906 150.96875 3.296875 C 151.113281 3.472656 151.125 3.738281 151 4.09375 C 150.9375 4.332031 150.816406 4.550781 150.640625 4.75 C 150.472656 4.945312 150.269531 5.019531 150.03125 4.96875 C 147.625 4.78125 145.242188 4.875 142.890625 5.25 C 140.109375 5.65625 137.984375 7.128906 136.515625 9.671875 C 128.648438 22.316406 119.625 34.082031 109.4375 44.96875 C 106.550781 48.125 103.546875 51.144531 100.421875 54.03125 C 97.304688 56.925781 93.929688 59.546875 90.296875 61.890625 C 87.171875 63.953125 83.816406 65.597656 80.234375 66.828125 C 78.117188 67.472656 75.960938 67.796875 73.765625 67.796875 L 73.6875 67.796875 C 73 67.796875 72.316406 67.769531 71.640625 67.71875 C 69.078125 67.476562 67.113281 66.566406 65.75 64.984375 C 64.382812 63.410156 63.796875 61.351562 63.984375 58.8125 C 64.273438 55.675781 65.210938 52.757812 66.796875 50.0625 C 69.679688 45.007812 73.25 40.453125 77.5 36.390625 C 84.613281 29.378906 92.328125 23.359375 100.640625 18.328125 C 108.960938 13.304688 117.925781 9.390625 127.53125 6.578125 C 131.40625 5.554688 134.375 3.285156 136.4375 -0.234375 C 142.257812 -10.179688 147.992188 -20.171875 153.640625 -30.203125 C 159.285156 -40.234375 164.703125 -50.394531 169.890625 -60.6875 C 171.546875 -63.925781 173.164062 -67.21875 174.75 -70.5625 C 175.039062 -71.28125 175.359375 -71.988281 175.703125 -72.6875 C 176.535156 -74.394531 176.9375 -75.46875 176.90625 -75.90625 C 176.882812 -76.351562 176.59375 -76.382812 176.03125 -76 C 175.46875 -75.613281 174.800781 -75.035156 174.03125 -74.265625 C 173.269531 -73.503906 172.570312 -72.78125 171.9375 -72.09375 C 171.457031 -71.601562 171.09375 -71.210938 170.84375 -70.921875 C 155.445312 -55.140625 138.921875 -40.601562 121.265625 -27.3125 C 117.679688 -24.5625 113.976562 -21.992188 110.15625 -19.609375 C 106.332031 -17.234375 102.320312 -15.097656 98.125 -13.203125 C 95.769531 -12.210938 93.359375 -11.421875 90.890625 -10.828125 C 88.429688 -10.242188 85.878906 -9.976562 83.234375 -10.03125 C 76.921875 -10.320312 73.617188 -13.648438 73.328125 -20.015625 C 73.222656 -23.648438 73.757812 -27.179688 74.9375 -30.609375 C 77.6875 -39.242188 81.148438 -47.5625 85.328125 -55.5625 C 89.285156 -63.050781 93.253906 -70.472656 97.234375 -77.828125 C 98.710938 -80.472656 100.160156 -83.144531 101.578125 -85.84375 C 105.742188 -93.25 109.515625 -100.898438 112.890625 -108.796875 C 113.816406 -110.960938 114.601562 -113.191406 115.25 -115.484375 C 115.726562 -117.304688 115.96875 -119.164062 115.96875 -121.0625 C 115.96875 -123.769531 114.617188 -125.5 111.921875 -126.25 C 110.367188 -126.726562 108.84375 -126.96875 107.34375 -126.96875 C 105.851562 -126.96875 104.316406 -126.847656 102.734375 -126.609375 C 95.429688 -125.566406 88.367188 -123.65625 81.546875 -120.875 C 59.429688 -112.394531 39.722656 -100.128906 22.421875 -84.078125 C 18.359375 -80.304688 14.707031 -76.226562 11.46875 -71.84375 C 8.238281 -67.457031 5.539062 -62.738281 3.375 -57.6875 C 1.894531 -54.34375 0.742188 -50.945312 -0.078125 -47.5 C -0.910156 -44.050781 -1.269531 -40.476562 -1.15625 -36.78125 C -1.03125 -33.707031 -0.488281 -30.769531 0.46875 -27.96875 C 1.4375 -25.175781 2.953125 -22.8125 5.015625 -20.875 C 7.078125 -18.9375 9.789062 -17.703125 13.15625 -17.171875 C 13.394531 -17.117188 13.585938 -16.988281 13.734375 -16.78125 C 13.878906 -16.582031 13.890625 -16.335938 13.765625 -16.046875 C 13.703125 -15.859375 13.609375 -15.703125 13.484375 -15.578125 C 13.367188 -15.460938 13.257812 -15.378906 13.15625 -15.328125 C 10.96875 -14.734375 8.816406 -14.90625 6.703125 -15.84375 C 3.066406 -17.445312 0.242188 -19.71875 -1.765625 -22.65625 C -3.773438 -25.601562 -5.070312 -28.894531 -5.65625 -32.53125 C -6.238281 -36.164062 -6.265625 -39.84375 -5.734375 -43.5625 C -4.960938 -48.75 -3.578125 -53.660156 -1.578125 -58.296875 C 0.410156 -62.941406 2.898438 -67.414062 5.890625 -71.71875 C 9.128906 -76.238281 12.707031 -80.457031 16.625 -84.375 C 20.539062 -88.300781 24.707031 -91.960938 29.125 -95.359375 C 36.289062 -100.890625 43.769531 -105.9375 51.5625 -110.5 C 59.363281 -115.0625 67.503906 -119.050781 75.984375 -122.46875 C 80.097656 -124.101562 84.273438 -125.554688 88.515625 -126.828125 C 92.753906 -128.097656 97.078125 -129.023438 101.484375 -129.609375 C 103.597656 -129.898438 105.734375 -130.0625 107.890625 -130.09375 C 110.046875 -130.125 112.148438 -129.867188 114.203125 -129.328125 C 120.035156 -127.859375 122.472656 -124.179688 121.515625 -118.296875 C 120.816406 -114.421875 119.640625 -110.691406 117.984375 -107.109375 C 114.691406 -99.566406 111.078125 -92.210938 107.140625 -85.046875 C 105.328125 -81.703125 103.5 -78.34375 101.65625 -74.96875 C 97.957031 -68.15625 94.28125 -61.3125 90.625 -54.4375 C 86.5 -46.550781 83.113281 -38.34375 80.46875 -29.8125 C 80.019531 -28.28125 79.613281 -26.71875 79.25 -25.125 C 78.882812 -23.539062 78.769531 -21.921875 78.90625 -20.265625 C 79.007812 -19.085938 79.238281 -17.9375 79.59375 -16.8125 C 80.363281 -14.644531 81.898438 -13.507812 84.203125 -13.40625 C 85.910156 -13.269531 87.582031 -13.46875 89.21875 -14 C 92.394531 -14.882812 95.40625 -16.0625 98.25 -17.53125 C 101.101562 -19 103.921875 -20.644531 106.703125 -22.46875 C 112.242188 -26 117.585938 -29.796875 122.734375 -33.859375 C 127.878906 -37.921875 132.953125 -42.09375 137.953125 -46.375 C 151.054688 -57.632812 163.441406 -69.613281 175.109375 -82.3125 C 176.390625 -83.726562 177.738281 -85.050781 179.15625 -86.28125 C 180.039062 -87.113281 181.097656 -87.609375 182.328125 -87.765625 Z M 128.765625 11.75 C 128.878906 11.644531 129 11.539062 129.125 11.4375 C 129.34375 11.132812 129.507812 10.835938 129.625 10.546875 C 129.75 10.253906 129.691406 9.960938 129.453125 9.671875 C 129.160156 9.367188 128.835938 9.242188 128.484375 9.296875 C 128.140625 9.359375 127.796875 9.484375 127.453125 9.671875 C 127.316406 9.722656 127.164062 9.75 127 9.75 C 126.175781 10.09375 125.347656 10.410156 124.515625 10.703125 C 124.410156 10.765625 124.289062 10.820312 124.15625 10.875 C 115.707031 14.101562 107.859375 18.203125 100.609375 23.171875 C 93.359375 28.148438 86.59375 33.878906 80.3125 40.359375 C 77.769531 42.898438 75.535156 45.691406 73.609375 48.734375 C 72.085938 51.035156 70.910156 53.484375 70.078125 56.078125 C 69.492188 57.710938 69.398438 59.382812 69.796875 61.09375 C 70.390625 63.34375 72.007812 64.492188 74.65625 64.546875 C 77.0625 64.140625 79.507812 63.253906 82 61.890625 C 84.695312 60.472656 87.222656 58.867188 89.578125 57.078125 C 91.929688 55.285156 94.191406 53.363281 96.359375 51.3125 C 103.609375 44.488281 110.226562 37.132812 116.21875 29.25 C 119.53125 24.882812 122.738281 20.441406 125.84375 15.921875 C 126.851562 14.554688 127.828125 13.164062 128.765625 11.75 Z M 128.765625 11.75" transform="translate(45.794 197.067)"/></g></g></g><g fill="#D9AE94"><g><g><path d="M 166.046875 -9.484375 C 166.140625 -9.441406 166.238281 -9.363281 166.34375 -9.25 C 166.457031 -9.132812 166.519531 -9 166.53125 -8.84375 C 166.539062 -8.601562 166.476562 -8.40625 166.34375 -8.25 C 166.207031 -8.101562 166.039062 -8.019531 165.84375 -8 L 165.1875 -8.03125 C 165.101562 -7.976562 165.035156 -7.953125 164.984375 -7.953125 C 152.710938 -7.847656 140.632812 -7.476562 128.75 -6.84375 C 116.875 -6.21875 104.898438 -5.492188 92.828125 -4.671875 C 90.847656 -4.546875 88.882812 -4.421875 86.9375 -4.296875 C 85.738281 -4.210938 84.78125 -3.914062 84.0625 -3.40625 C 83.34375 -2.894531 82.753906 -2.046875 82.296875 -0.859375 C 79.648438 6.410156 76.929688 13.671875 74.140625 20.921875 C 72.640625 24.867188 71.140625 28.8125 69.640625 32.75 C 68.566406 35.625 67.515625 38.535156 66.484375 41.484375 C 65.953125 42.941406 65.441406 44.390625 64.953125 45.828125 C 64.910156 45.960938 64.84375 46.109375 64.75 46.265625 C 64.6875 46.671875 64.546875 47.046875 64.328125 47.390625 C 63.953125 47.753906 63.453125 47.984375 62.828125 48.078125 C 62.203125 48.179688 61.644531 48.09375 61.15625 47.8125 C 60.675781 47.539062 60.507812 47.035156 60.65625 46.296875 C 61.019531 45.066406 61.429688 43.863281 61.890625 42.6875 C 65.847656 31.757812 69.84375 20.835938 73.875 9.921875 C 74.8125 7.378906 75.765625 4.804688 76.734375 2.203125 C 76.859375 1.816406 76.992188 1.394531 77.140625 0.9375 C 77.484375 0.03125 77.828125 -0.859375 78.171875 -1.734375 C 78.472656 -2.722656 78.191406 -3.25 77.328125 -3.3125 C 71.171875 -2.757812 65.050781 -2.085938 58.96875 -1.296875 C 55.789062 -0.910156 52.570312 -0.535156 49.3125 -0.171875 C 47.5 -0.00390625 46.28125 0.941406 45.65625 2.671875 C 42.914062 9.785156 40.03125 16.84375 37 23.84375 C 35.238281 27.988281 33.441406 32.144531 31.609375 36.3125 C 30.929688 37.820312 30.253906 39.320312 29.578125 40.8125 C 29.191406 41.769531 28.769531 42.675781 28.3125 43.53125 C 27.832031 44.289062 27.144531 44.78125 26.25 45 C 25.351562 45.226562 24.554688 45.234375 23.859375 45.015625 C 23.171875 44.796875 22.832031 44.394531 22.84375 43.8125 C 23.007812 42.675781 23.285156 41.582031 23.671875 40.53125 C 26.554688 31.394531 29.789062 22.382812 33.375 13.5 C 34.625 10.351562 35.875 7.195312 37.125 4.03125 C 37.46875 3.03125 37.171875 2.5 36.234375 2.4375 C 35.296875 2.382812 33.941406 2.515625 32.171875 2.828125 C 32.128906 2.828125 32.050781 2.832031 31.9375 2.84375 C 28.84375 3.320312 25.679688 3.957031 22.453125 4.75 C 19.222656 5.550781 17.109375 6.128906 16.109375 6.484375 C 15.117188 6.796875 14.09375 6.984375 13.03125 7.046875 C 12.96875 7.128906 12.890625 7.171875 12.796875 7.171875 C 12.710938 7.179688 12.613281 7.148438 12.5 7.078125 L 11.9375 7.234375 C 11.75 7.242188 11.550781 7.175781 11.34375 7.03125 C 11.132812 6.882812 11.023438 6.691406 11.015625 6.453125 C 11.046875 6.316406 11.113281 6.144531 11.21875 5.9375 C 11.332031 5.738281 11.457031 5.585938 11.59375 5.484375 C 15.382812 3.867188 19.28125 2.664062 23.28125 1.875 C 27.84375 0.894531 32.410156 0.015625 36.984375 -0.765625 C 38.515625 -0.898438 39.5625 -1.675781 40.125 -3.09375 C 41.28125 -5.9375 42.5 -8.785156 43.78125 -11.640625 C 45.300781 -15.003906 46.859375 -18.367188 48.453125 -21.734375 C 48.992188 -22.972656 49.546875 -24.222656 50.109375 -25.484375 C 50.191406 -25.585938 50.265625 -25.710938 50.328125 -25.859375 C 50.472656 -26.265625 50.65625 -26.640625 50.875 -26.984375 C 52 -28.484375 52.914062 -30.082031 53.625 -31.78125 C 54.34375 -33.488281 54.988281 -35.234375 55.5625 -37.015625 C 55.851562 -37.753906 56.128906 -38.5 56.390625 -39.25 C 61.390625 -52.851562 66.3125 -66.476562 71.15625 -80.125 C 73.394531 -86.113281 75.023438 -92.238281 76.046875 -98.5 C 76.472656 -100.757812 76.46875 -102.992188 76.03125 -105.203125 C 75.664062 -106.472656 74.773438 -107.09375 73.359375 -107.0625 C 71.953125 -107.03125 70.269531 -106.554688 68.3125 -105.640625 C 66.351562 -104.734375 64.332031 -103.648438 62.25 -102.390625 C 60.164062 -101.140625 58.285156 -99.925781 56.609375 -98.75 C 54.941406 -97.570312 53.707031 -96.691406 52.90625 -96.109375 C 52.664062 -95.953125 52.507812 -95.84375 52.4375 -95.78125 C 30.625 -80.164062 11.363281 -61.859375 -5.34375 -40.859375 C -7.164062 -38.554688 -8.914062 -36.179688 -10.59375 -33.734375 C -12.269531 -31.296875 -13.78125 -28.738281 -15.125 -26.0625 C -16.144531 -24.050781 -16.925781 -21.960938 -17.46875 -19.796875 C -18.101562 -16.492188 -17.707031 -14.023438 -16.28125 -12.390625 C -14.851562 -10.753906 -12.8125 -9.726562 -10.15625 -9.3125 C -7.5 -8.90625 -4.640625 -8.890625 -1.578125 -9.265625 C 1.484375 -9.640625 4.359375 -10.140625 7.046875 -10.765625 C 9.742188 -11.390625 11.828125 -11.96875 13.296875 -12.5 C 15.046875 -13.050781 16.8125 -13.582031 18.59375 -14.09375 C 20.113281 -14.488281 20.546875 -14.421875 19.890625 -13.890625 C 19.242188 -13.367188 17.8125 -12.609375 15.59375 -11.609375 C 13.382812 -10.609375 10.71875 -9.601562 7.59375 -8.59375 C 4.46875 -7.59375 1.21875 -6.8125 -2.15625 -6.25 C -5.53125 -5.6875 -8.71875 -5.550781 -11.71875 -5.84375 C -14.726562 -6.132812 -17.222656 -7.082031 -19.203125 -8.6875 C -21.191406 -10.289062 -22.316406 -12.789062 -22.578125 -16.1875 C -22.578125 -16.28125 -22.582031 -16.367188 -22.59375 -16.453125 C -22.625 -18.597656 -22.25 -20.664062 -21.46875 -22.65625 C -20.1875 -26.257812 -18.460938 -29.640625 -16.296875 -32.796875 C -14.015625 -36.191406 -11.617188 -39.484375 -9.109375 -42.671875 C 7.097656 -62.941406 25.679688 -80.738281 46.640625 -96.0625 C 49.109375 -97.875 51.984375 -99.867188 55.265625 -102.046875 C 58.554688 -104.234375 61.96875 -106.109375 65.5 -107.671875 C 69.03125 -109.242188 72.375 -110.066406 75.53125 -110.140625 C 79.019531 -110.171875 81.035156 -108.476562 81.578125 -105.0625 C 81.816406 -103.789062 81.890625 -102.539062 81.796875 -101.3125 C 81.710938 -100.09375 81.5625 -98.875 81.34375 -97.65625 C 81.3125 -97.46875 81.273438 -97.273438 81.234375 -97.078125 C 80.785156 -94.117188 80.144531 -91.222656 79.3125 -88.390625 C 78.488281 -85.566406 77.578125 -82.757812 76.578125 -79.96875 C 68.171875 -55.726562 59.285156 -31.671875 49.921875 -7.796875 C 49.628906 -7.109375 49.367188 -6.390625 49.140625 -5.640625 C 48.722656 -4.484375 48.816406 -3.707031 49.421875 -3.3125 C 50.035156 -2.914062 51.03125 -2.765625 52.40625 -2.859375 C 53.789062 -2.953125 55.398438 -3.125 57.234375 -3.375 C 57.523438 -3.394531 57.8125 -3.445312 58.09375 -3.53125 C 59.3125 -3.644531 60.546875 -3.789062 61.796875 -3.96875 C 67.335938 -4.769531 72.84375 -5.425781 78.3125 -5.9375 C 79.28125 -6 79.925781 -6.453125 80.25 -7.296875 C 80.632812 -8.203125 80.992188 -9.113281 81.328125 -10.03125 C 87.472656 -26.25 93.910156 -42.34375 100.640625 -58.3125 C 107.378906 -74.28125 114.226562 -90.195312 121.1875 -106.0625 C 121.257812 -106.269531 121.34375 -106.476562 121.4375 -106.6875 C 121.675781 -107.425781 122.066406 -108.054688 122.609375 -108.578125 C 123.035156 -108.859375 123.535156 -109.015625 124.109375 -109.046875 C 124.691406 -109.085938 125.195312 -108.988281 125.625 -108.75 C 126.0625 -108.507812 126.175781 -108.035156 125.96875 -107.328125 C 125.9375 -107.171875 125.882812 -107.003906 125.8125 -106.828125 C 125.269531 -105.128906 124.671875 -103.453125 124.015625 -101.796875 C 120.597656 -93.660156 117.148438 -85.535156 113.671875 -77.421875 C 112.460938 -74.515625 111.25 -71.609375 110.03125 -68.703125 C 101.976562 -49.640625 94.113281 -30.492188 86.4375 -11.265625 C 86.300781 -10.898438 86.15625 -10.550781 86 -10.21875 C 85.820312 -9.800781 85.675781 -9.40625 85.5625 -9.03125 C 85.101562 -7.820312 85.113281 -7.0625 85.59375 -6.75 C 86.070312 -6.445312 86.816406 -6.378906 87.828125 -6.546875 C 98.410156 -7.804688 109.226562 -8.632812 120.28125 -9.03125 C 131.332031 -9.425781 142.296875 -9.691406 153.171875 -9.828125 C 156.515625 -9.878906 159.84375 -9.925781 163.15625 -9.96875 C 163.3125 -9.976562 163.4375 -9.984375 163.53125 -9.984375 C 163.96875 -10.015625 164.40625 -10.003906 164.84375 -9.953125 C 165.28125 -9.910156 165.679688 -9.753906 166.046875 -9.484375 Z M 166.046875 -9.484375" transform="translate(170.094 283.811)"/></g></g></g></svg>